<mxfile host="app.diagrams.net" modified="2023-07-13T10:47:08.063Z" agent="Mozilla/5.0 (Windows NT 10.0; Win64; x64) AppleWebKit/537.36 (KHTML, like Gecko) Chrome/112.0.0.0 YaBrowser/23.5.4.674 Yowser/2.5 Safari/537.36" etag="m9Zq99tKFU4mzA69myES" version="21.6.2" type="github">
  <diagram name="Страница 1" id="9akFb3WqZ82uuqZONZOM">
    <mxGraphModel dx="2258" dy="821" grid="1" gridSize="10" guides="1" tooltips="1" connect="1" arrows="1" fold="1" page="1" pageScale="1" pageWidth="827" pageHeight="1169" math="0" shadow="0">
      <root>
        <mxCell id="0" />
        <mxCell id="1" parent="0" />
        <mxCell id="zOHA-HB9x2jCaAQE674N-4" value="" style="rounded=0;whiteSpace=wrap;html=1;" vertex="1" parent="1">
          <mxGeometry x="-170" y="20" width="460" height="220" as="geometry" />
        </mxCell>
        <mxCell id="zOHA-HB9x2jCaAQE674N-6" value="DAG_add_gics_codes&lt;br&gt;добавление gics тэгов" style="rounded=0;whiteSpace=wrap;html=1;" vertex="1" parent="1">
          <mxGeometry x="150" y="130" width="120" height="60" as="geometry" />
        </mxCell>
        <mxCell id="zOHA-HB9x2jCaAQE674N-7" value="DAG_add_naics_tags&lt;br&gt;добавление naics тэгов&lt;br&gt;" style="rounded=0;whiteSpace=wrap;html=1;" vertex="1" parent="1">
          <mxGeometry x="-140" y="120" width="120" height="60" as="geometry" />
        </mxCell>
        <mxCell id="zOHA-HB9x2jCaAQE674N-8" value="Add&amp;nbsp; tags" style="text;html=1;strokeColor=none;fillColor=none;align=center;verticalAlign=middle;whiteSpace=wrap;rounded=0;" vertex="1" parent="1">
          <mxGeometry x="30" y="30" width="60" height="30" as="geometry" />
        </mxCell>
        <mxCell id="zOHA-HB9x2jCaAQE674N-9" value="" style="rounded=0;whiteSpace=wrap;html=1;" vertex="1" parent="1">
          <mxGeometry x="80" y="410" width="630" height="360" as="geometry" />
        </mxCell>
        <mxCell id="zOHA-HB9x2jCaAQE674N-10" value="DAG_calc_summarization_bart_large_cnn&lt;br&gt;англоязычные новости" style="rounded=0;whiteSpace=wrap;html=1;" vertex="1" parent="1">
          <mxGeometry x="150" y="480" width="120" height="60" as="geometry" />
        </mxCell>
        <mxCell id="zOHA-HB9x2jCaAQE674N-11" value="summarization" style="text;html=1;strokeColor=none;fillColor=none;align=center;verticalAlign=middle;whiteSpace=wrap;rounded=0;" vertex="1" parent="1">
          <mxGeometry x="354" y="420" width="60" height="30" as="geometry" />
        </mxCell>
        <mxCell id="zOHA-HB9x2jCaAQE674N-12" value="" style="rounded=0;whiteSpace=wrap;html=1;" vertex="1" parent="1">
          <mxGeometry x="-400" y="400" width="400" height="350" as="geometry" />
        </mxCell>
        <mxCell id="zOHA-HB9x2jCaAQE674N-13" value="DAG_calc_tonality_summarization_bart_finbert_two&lt;br&gt;вычисление тональности для суммаризации cnn" style="rounded=0;whiteSpace=wrap;html=1;" vertex="1" parent="1">
          <mxGeometry x="-320" y="490" width="120" height="60" as="geometry" />
        </mxCell>
        <mxCell id="zOHA-HB9x2jCaAQE674N-14" style="edgeStyle=orthogonalEdgeStyle;rounded=0;orthogonalLoop=1;jettySize=auto;html=1;exitX=0;exitY=1;exitDx=0;exitDy=0;entryX=0.5;entryY=0.31;entryDx=0;entryDy=0;entryPerimeter=0;" edge="1" parent="1" source="zOHA-HB9x2jCaAQE674N-10" target="zOHA-HB9x2jCaAQE674N-12">
          <mxGeometry relative="1" as="geometry" />
        </mxCell>
        <mxCell id="zOHA-HB9x2jCaAQE674N-15" value="tone после суммаризации&lt;br&gt;" style="text;html=1;strokeColor=none;fillColor=none;align=center;verticalAlign=middle;whiteSpace=wrap;rounded=0;" vertex="1" parent="1">
          <mxGeometry x="-230" y="410" width="60" height="30" as="geometry" />
        </mxCell>
      </root>
    </mxGraphModel>
  </diagram>
</mxfile>
